<svg xmlns="http://www.w3.org/2000/svg" xmlns:xlink="http://www.w3.org/1999/xlink" width="500" zoomAndPan="magnify" viewBox="0 0 375 374.999991" height="500" preserveAspectRatio="xMidYMid meet" version="1.0"><defs><filter x="0%" y="0%" width="100%" height="100%" id="b44ad1d87b"><feColorMatrix values="0 0 0 0 1 0 0 0 0 1 0 0 0 0 1 0 0 0 1 0" color-interpolation-filters="sRGB"/></filter><g/><mask id="5ae33b0179"><g filter="url(#b44ad1d87b)"><rect x="-37.5" width="450" fill="#000000" y="-37.499999" height="449.999989" fill-opacity="0.7098"/></g></mask><clipPath id="de38e8df0a"><path d="M 1 0.078125 L 88 0.078125 L 88 86 L 1 86 Z M 1 0.078125 " clip-rule="nonzero"/></clipPath><clipPath id="cab8c3d2a1"><rect x="0" width="89" y="0" height="87"/></clipPath><mask id="9052a34fee"><g filter="url(#b44ad1d87b)"><rect x="-37.5" width="450" fill="#000000" y="-37.499999" height="449.999989" fill-opacity="0.7098"/></g></mask><clipPath id="0fa1e6fc7b"><path d="M 0.480469 1 L 83.761719 1 L 83.761719 83 L 0.480469 83 Z M 0.480469 1 " clip-rule="nonzero"/></clipPath><clipPath id="71da7bc852"><rect x="0" width="84" y="0" height="84"/></clipPath><mask id="e9f921f6e4"><g filter="url(#b44ad1d87b)"><rect x="-37.5" width="450" fill="#000000" y="-37.499999" height="449.999989" fill-opacity="0.7098"/></g></mask><clipPath id="721c7cef78"><path d="M 0.679688 1 L 20.839844 1 L 20.839844 21 L 0.679688 21 Z M 0.679688 1 " clip-rule="nonzero"/></clipPath><clipPath id="3fa164dc69"><rect x="0" width="21" y="0" height="22"/></clipPath><mask id="7f354f6ad5"><g filter="url(#b44ad1d87b)"><rect x="-37.5" width="450" fill="#000000" y="-37.499999" height="449.999989" fill-opacity="0.7098"/></g></mask><clipPath id="57ecb0e4b1"><path d="M 1 1 L 100.398438 1 L 100.398438 38 L 1 38 Z M 1 1 " clip-rule="nonzero"/></clipPath><clipPath id="83f908a64a"><rect x="0" width="101" y="0" height="39"/></clipPath></defs><g fill="#ff7948" fill-opacity="1"><g transform="translate(197.941392, 237.530538)"><g><path d="M 2.046875 0.0625 C 1.691406 0.0625 1.390625 -0.03125 1.140625 -0.21875 C 0.890625 -0.40625 0.71875 -0.65625 0.625 -0.96875 C 0.5625 -1.207031 0.53125 -1.523438 0.53125 -1.921875 C 0.53125 -2.296875 0.5625 -2.609375 0.625 -2.859375 C 0.707031 -3.160156 0.875 -3.40625 1.125 -3.59375 C 1.382812 -3.78125 1.691406 -3.875 2.046875 -3.875 C 2.398438 -3.875 2.707031 -3.78125 2.96875 -3.59375 C 3.226562 -3.414062 3.394531 -3.191406 3.46875 -2.921875 C 3.488281 -2.859375 3.503906 -2.796875 3.515625 -2.734375 L 3.515625 -2.71875 C 3.515625 -2.664062 3.488281 -2.632812 3.4375 -2.625 L 3.21875 -2.59375 L 3.203125 -2.59375 C 3.160156 -2.59375 3.128906 -2.625 3.109375 -2.6875 C 3.109375 -2.707031 3.101562 -2.738281 3.09375 -2.78125 C 3.050781 -2.988281 2.929688 -3.164062 2.734375 -3.3125 C 2.546875 -3.457031 2.316406 -3.53125 2.046875 -3.53125 C 1.765625 -3.53125 1.53125 -3.453125 1.34375 -3.296875 C 1.164062 -3.148438 1.050781 -2.957031 1 -2.71875 C 0.957031 -2.53125 0.9375 -2.257812 0.9375 -1.90625 C 0.9375 -1.550781 0.957031 -1.285156 1 -1.109375 C 1.050781 -0.859375 1.164062 -0.660156 1.34375 -0.515625 C 1.53125 -0.367188 1.765625 -0.296875 2.046875 -0.296875 C 2.316406 -0.296875 2.546875 -0.367188 2.734375 -0.515625 C 2.929688 -0.660156 3.050781 -0.835938 3.09375 -1.046875 L 3.109375 -1.078125 C 3.109375 -1.109375 3.117188 -1.128906 3.140625 -1.140625 C 3.160156 -1.148438 3.1875 -1.15625 3.21875 -1.15625 L 3.421875 -1.125 C 3.441406 -1.125 3.460938 -1.113281 3.484375 -1.09375 C 3.503906 -1.070312 3.507812 -1.046875 3.5 -1.015625 L 3.46875 -0.90625 C 3.394531 -0.625 3.226562 -0.390625 2.96875 -0.203125 C 2.707031 -0.0234375 2.398438 0.0625 2.046875 0.0625 Z M 2.046875 0.0625 "/></g></g></g><g fill="#ff7948" fill-opacity="1"><g transform="translate(206.250638, 237.530538)"><g><path d="M 2.09375 -3.84375 C 2.25 -3.84375 2.394531 -3.816406 2.53125 -3.765625 C 2.570312 -3.742188 2.585938 -3.707031 2.578125 -3.65625 L 2.515625 -3.4375 C 2.503906 -3.375 2.46875 -3.351562 2.40625 -3.375 C 2.289062 -3.414062 2.164062 -3.429688 2.03125 -3.421875 C 1.75 -3.421875 1.515625 -3.3125 1.328125 -3.09375 C 1.148438 -2.882812 1.0625 -2.628906 1.0625 -2.328125 L 1.0625 -0.09375 C 1.0625 -0.0625 1.050781 -0.0351562 1.03125 -0.015625 C 1.019531 -0.00390625 1 0 0.96875 0 L 0.75 0 C 0.726562 0 0.707031 -0.00390625 0.6875 -0.015625 C 0.664062 -0.0351562 0.65625 -0.0625 0.65625 -0.09375 L 0.65625 -3.734375 C 0.65625 -3.753906 0.664062 -3.769531 0.6875 -3.78125 C 0.707031 -3.800781 0.726562 -3.8125 0.75 -3.8125 L 0.96875 -3.8125 C 1 -3.8125 1.019531 -3.800781 1.03125 -3.78125 C 1.050781 -3.769531 1.0625 -3.753906 1.0625 -3.734375 L 1.0625 -3.234375 C 1.0625 -3.210938 1.0625 -3.203125 1.0625 -3.203125 C 1.070312 -3.203125 1.082031 -3.207031 1.09375 -3.21875 C 1.195312 -3.414062 1.332031 -3.566406 1.5 -3.671875 C 1.675781 -3.785156 1.875 -3.84375 2.09375 -3.84375 Z M 2.09375 -3.84375 "/></g></g></g><g fill="#ff7948" fill-opacity="1"><g transform="translate(213.369594, 237.530538)"><g><path d="M 2.046875 0.0625 C 1.691406 0.0625 1.390625 -0.03125 1.140625 -0.21875 C 0.890625 -0.40625 0.71875 -0.65625 0.625 -0.96875 C 0.5625 -1.164062 0.53125 -1.484375 0.53125 -1.921875 C 0.53125 -2.328125 0.554688 -2.640625 0.609375 -2.859375 C 0.703125 -3.171875 0.875 -3.414062 1.125 -3.59375 C 1.382812 -3.78125 1.691406 -3.875 2.046875 -3.875 C 2.398438 -3.875 2.703125 -3.78125 2.953125 -3.59375 C 3.210938 -3.40625 3.382812 -3.160156 3.46875 -2.859375 C 3.519531 -2.648438 3.546875 -2.335938 3.546875 -1.921875 C 3.546875 -1.484375 3.519531 -1.164062 3.46875 -0.96875 C 3.382812 -0.65625 3.210938 -0.40625 2.953125 -0.21875 C 2.703125 -0.03125 2.398438 0.0625 2.046875 0.0625 Z M 2.046875 -0.296875 C 2.316406 -0.296875 2.546875 -0.367188 2.734375 -0.515625 C 2.921875 -0.660156 3.039062 -0.859375 3.09375 -1.109375 C 3.125 -1.242188 3.140625 -1.507812 3.140625 -1.90625 C 3.140625 -2.3125 3.125 -2.582031 3.09375 -2.71875 C 3.039062 -2.957031 2.921875 -3.148438 2.734375 -3.296875 C 2.546875 -3.453125 2.3125 -3.53125 2.03125 -3.53125 C 1.757812 -3.53125 1.53125 -3.453125 1.34375 -3.296875 C 1.15625 -3.148438 1.035156 -2.957031 0.984375 -2.71875 C 0.953125 -2.582031 0.9375 -2.3125 0.9375 -1.90625 C 0.9375 -1.5 0.953125 -1.234375 0.984375 -1.109375 C 1.035156 -0.859375 1.15625 -0.660156 1.34375 -0.515625 C 1.53125 -0.367188 1.765625 -0.296875 2.046875 -0.296875 Z M 2.046875 -0.296875 "/></g></g></g><g fill="#ff7948" fill-opacity="1"><g transform="translate(221.853214, 237.530538)"><g><path d="M 1.84375 0.03125 C 1.570312 0.03125 1.332031 -0.0078125 1.125 -0.09375 C 0.914062 -0.1875 0.753906 -0.304688 0.640625 -0.453125 C 0.523438 -0.609375 0.46875 -0.773438 0.46875 -0.953125 L 0.46875 -1.03125 C 0.46875 -1.0625 0.472656 -1.082031 0.484375 -1.09375 C 0.503906 -1.113281 0.523438 -1.125 0.546875 -1.125 L 0.765625 -1.125 C 0.785156 -1.125 0.804688 -1.113281 0.828125 -1.09375 C 0.847656 -1.082031 0.859375 -1.066406 0.859375 -1.046875 L 0.859375 -0.96875 C 0.859375 -0.789062 0.945312 -0.628906 1.125 -0.484375 C 1.3125 -0.347656 1.550781 -0.28125 1.84375 -0.28125 C 2.125 -0.28125 2.351562 -0.347656 2.53125 -0.484375 C 2.707031 -0.628906 2.796875 -0.800781 2.796875 -1 C 2.796875 -1.144531 2.75 -1.257812 2.65625 -1.34375 C 2.570312 -1.4375 2.46875 -1.503906 2.34375 -1.546875 C 2.21875 -1.597656 2.03125 -1.664062 1.78125 -1.75 C 1.5 -1.832031 1.269531 -1.910156 1.09375 -1.984375 C 0.925781 -2.054688 0.78125 -2.160156 0.65625 -2.296875 C 0.539062 -2.441406 0.484375 -2.617188 0.484375 -2.828125 C 0.484375 -3.140625 0.601562 -3.382812 0.84375 -3.5625 C 1.09375 -3.75 1.414062 -3.84375 1.8125 -3.84375 C 2.082031 -3.84375 2.316406 -3.796875 2.515625 -3.703125 C 2.722656 -3.617188 2.882812 -3.5 3 -3.34375 C 3.113281 -3.195312 3.171875 -3.03125 3.171875 -2.84375 L 3.171875 -2.828125 C 3.171875 -2.804688 3.160156 -2.785156 3.140625 -2.765625 C 3.128906 -2.753906 3.109375 -2.75 3.078125 -2.75 L 2.875 -2.75 C 2.851562 -2.75 2.832031 -2.753906 2.8125 -2.765625 C 2.789062 -2.773438 2.78125 -2.785156 2.78125 -2.796875 L 2.78125 -2.84375 C 2.78125 -3.03125 2.691406 -3.1875 2.515625 -3.3125 C 2.335938 -3.445312 2.101562 -3.515625 1.8125 -3.515625 C 1.53125 -3.515625 1.300781 -3.453125 1.125 -3.328125 C 0.957031 -3.210938 0.875 -3.054688 0.875 -2.859375 C 0.875 -2.660156 0.953125 -2.515625 1.109375 -2.421875 C 1.265625 -2.328125 1.515625 -2.226562 1.859375 -2.125 C 2.148438 -2.039062 2.382812 -1.960938 2.5625 -1.890625 C 2.738281 -1.816406 2.890625 -1.707031 3.015625 -1.5625 C 3.140625 -1.425781 3.203125 -1.242188 3.203125 -1.015625 C 3.203125 -0.703125 3.078125 -0.445312 2.828125 -0.25 C 2.585938 -0.0625 2.257812 0.03125 1.84375 0.03125 Z M 1.84375 0.03125 "/></g></g></g><g fill="#ff7948" fill-opacity="1"><g transform="translate(229.874361, 237.530538)"><g><path d="M 1.84375 0.03125 C 1.570312 0.03125 1.332031 -0.0078125 1.125 -0.09375 C 0.914062 -0.1875 0.753906 -0.304688 0.640625 -0.453125 C 0.523438 -0.609375 0.46875 -0.773438 0.46875 -0.953125 L 0.46875 -1.03125 C 0.46875 -1.0625 0.472656 -1.082031 0.484375 -1.09375 C 0.503906 -1.113281 0.523438 -1.125 0.546875 -1.125 L 0.765625 -1.125 C 0.785156 -1.125 0.804688 -1.113281 0.828125 -1.09375 C 0.847656 -1.082031 0.859375 -1.066406 0.859375 -1.046875 L 0.859375 -0.96875 C 0.859375 -0.789062 0.945312 -0.628906 1.125 -0.484375 C 1.3125 -0.347656 1.550781 -0.28125 1.84375 -0.28125 C 2.125 -0.28125 2.351562 -0.347656 2.53125 -0.484375 C 2.707031 -0.628906 2.796875 -0.800781 2.796875 -1 C 2.796875 -1.144531 2.75 -1.257812 2.65625 -1.34375 C 2.570312 -1.4375 2.46875 -1.503906 2.34375 -1.546875 C 2.21875 -1.597656 2.03125 -1.664062 1.78125 -1.75 C 1.5 -1.832031 1.269531 -1.910156 1.09375 -1.984375 C 0.925781 -2.054688 0.78125 -2.160156 0.65625 -2.296875 C 0.539062 -2.441406 0.484375 -2.617188 0.484375 -2.828125 C 0.484375 -3.140625 0.601562 -3.382812 0.84375 -3.5625 C 1.09375 -3.75 1.414062 -3.84375 1.8125 -3.84375 C 2.082031 -3.84375 2.316406 -3.796875 2.515625 -3.703125 C 2.722656 -3.617188 2.882812 -3.5 3 -3.34375 C 3.113281 -3.195312 3.171875 -3.03125 3.171875 -2.84375 L 3.171875 -2.828125 C 3.171875 -2.804688 3.160156 -2.785156 3.140625 -2.765625 C 3.128906 -2.753906 3.109375 -2.75 3.078125 -2.75 L 2.875 -2.75 C 2.851562 -2.75 2.832031 -2.753906 2.8125 -2.765625 C 2.789062 -2.773438 2.78125 -2.785156 2.78125 -2.796875 L 2.78125 -2.84375 C 2.78125 -3.03125 2.691406 -3.1875 2.515625 -3.3125 C 2.335938 -3.445312 2.101562 -3.515625 1.8125 -3.515625 C 1.53125 -3.515625 1.300781 -3.453125 1.125 -3.328125 C 0.957031 -3.210938 0.875 -3.054688 0.875 -2.859375 C 0.875 -2.660156 0.953125 -2.515625 1.109375 -2.421875 C 1.265625 -2.328125 1.515625 -2.226562 1.859375 -2.125 C 2.148438 -2.039062 2.382812 -1.960938 2.5625 -1.890625 C 2.738281 -1.816406 2.890625 -1.707031 3.015625 -1.5625 C 3.140625 -1.425781 3.203125 -1.242188 3.203125 -1.015625 C 3.203125 -0.703125 3.078125 -0.445312 2.828125 -0.25 C 2.585938 -0.0625 2.257812 0.03125 1.84375 0.03125 Z M 1.84375 0.03125 "/></g></g></g><g fill="#ff7948" fill-opacity="1"><g transform="translate(237.895508, 237.530538)"><g><path d="M 0.40625 -2.203125 C 0.382812 -2.203125 0.363281 -2.210938 0.34375 -2.234375 C 0.320312 -2.253906 0.3125 -2.273438 0.3125 -2.296875 L 0.3125 -2.46875 C 0.3125 -2.5 0.320312 -2.519531 0.34375 -2.53125 C 0.363281 -2.550781 0.382812 -2.5625 0.40625 -2.5625 L 2.546875 -2.5625 C 2.578125 -2.5625 2.597656 -2.550781 2.609375 -2.53125 C 2.628906 -2.519531 2.640625 -2.5 2.640625 -2.46875 L 2.640625 -2.296875 C 2.640625 -2.273438 2.628906 -2.253906 2.609375 -2.234375 C 2.597656 -2.210938 2.578125 -2.203125 2.546875 -2.203125 Z M 0.40625 -2.203125 "/></g></g></g><g fill="#ff7948" fill-opacity="1"><g transform="translate(245.257072, 237.530538)"><g><path d="M 2.0625 -0.28125 C 2.3125 -0.289062 2.523438 -0.347656 2.703125 -0.453125 C 2.878906 -0.566406 3.007812 -0.71875 3.09375 -0.90625 C 3.125 -0.957031 3.164062 -0.972656 3.21875 -0.953125 L 3.34375 -0.90625 C 3.40625 -0.875 3.425781 -0.832031 3.40625 -0.78125 C 3.289062 -0.519531 3.113281 -0.3125 2.875 -0.15625 C 2.644531 -0.0078125 2.363281 0.0625 2.03125 0.0625 C 1.6875 0.0625 1.390625 -0.0195312 1.140625 -0.1875 C 0.898438 -0.363281 0.734375 -0.601562 0.640625 -0.90625 C 0.566406 -1.132812 0.53125 -1.472656 0.53125 -1.921875 C 0.53125 -2.160156 0.535156 -2.34375 0.546875 -2.46875 C 0.554688 -2.601562 0.570312 -2.722656 0.59375 -2.828125 C 0.675781 -3.140625 0.84375 -3.390625 1.09375 -3.578125 C 1.34375 -3.773438 1.648438 -3.875 2.015625 -3.875 C 2.421875 -3.875 2.742188 -3.769531 2.984375 -3.5625 C 3.234375 -3.351562 3.394531 -3.0625 3.46875 -2.6875 C 3.488281 -2.582031 3.5 -2.476562 3.5 -2.375 C 3.507812 -2.269531 3.515625 -2.101562 3.515625 -1.875 C 3.515625 -1.8125 3.484375 -1.78125 3.421875 -1.78125 L 0.96875 -1.78125 C 0.945312 -1.78125 0.9375 -1.769531 0.9375 -1.75 C 0.9375 -1.425781 0.945312 -1.207031 0.96875 -1.09375 C 1.019531 -0.851562 1.140625 -0.65625 1.328125 -0.5 C 1.523438 -0.351562 1.769531 -0.28125 2.0625 -0.28125 Z M 0.984375 -2.734375 C 0.960938 -2.640625 0.945312 -2.441406 0.9375 -2.140625 C 0.9375 -2.117188 0.945312 -2.109375 0.96875 -2.109375 L 3.078125 -2.109375 C 3.097656 -2.109375 3.109375 -2.117188 3.109375 -2.140625 C 3.109375 -2.398438 3.09375 -2.59375 3.0625 -2.71875 C 3.007812 -2.957031 2.890625 -3.148438 2.703125 -3.296875 C 2.515625 -3.453125 2.285156 -3.53125 2.015625 -3.53125 C 1.742188 -3.53125 1.515625 -3.457031 1.328125 -3.3125 C 1.148438 -3.164062 1.035156 -2.972656 0.984375 -2.734375 Z M 0.984375 -2.734375 "/></g></g></g><g fill="#ff7948" fill-opacity="1"><g transform="translate(253.680034, 237.530538)"><g><path d="M 2.171875 -3.875 C 2.554688 -3.875 2.867188 -3.753906 3.109375 -3.515625 C 3.347656 -3.273438 3.46875 -2.960938 3.46875 -2.578125 L 3.46875 -0.09375 C 3.46875 -0.0625 3.457031 -0.0351562 3.4375 -0.015625 C 3.414062 -0.00390625 3.394531 0 3.375 0 L 3.15625 0 C 3.125 0 3.097656 -0.00390625 3.078125 -0.015625 C 3.066406 -0.0351562 3.0625 -0.0625 3.0625 -0.09375 L 3.0625 -2.5 C 3.0625 -2.800781 2.96875 -3.046875 2.78125 -3.234375 C 2.601562 -3.421875 2.367188 -3.515625 2.078125 -3.515625 C 1.773438 -3.515625 1.53125 -3.421875 1.34375 -3.234375 C 1.15625 -3.054688 1.0625 -2.816406 1.0625 -2.515625 L 1.0625 -0.09375 C 1.0625 -0.0625 1.050781 -0.0351562 1.03125 -0.015625 C 1.019531 -0.00390625 1 0 0.96875 0 L 0.75 0 C 0.726562 0 0.707031 -0.00390625 0.6875 -0.015625 C 0.664062 -0.0351562 0.65625 -0.0625 0.65625 -0.09375 L 0.65625 -3.734375 C 0.65625 -3.753906 0.664062 -3.769531 0.6875 -3.78125 C 0.707031 -3.800781 0.726562 -3.8125 0.75 -3.8125 L 0.96875 -3.8125 C 1 -3.8125 1.019531 -3.800781 1.03125 -3.78125 C 1.050781 -3.769531 1.0625 -3.753906 1.0625 -3.734375 L 1.0625 -3.375 C 1.0625 -3.351562 1.0625 -3.34375 1.0625 -3.34375 C 1.070312 -3.34375 1.082031 -3.347656 1.09375 -3.359375 C 1.207031 -3.523438 1.351562 -3.648438 1.53125 -3.734375 C 1.71875 -3.828125 1.929688 -3.875 2.171875 -3.875 Z M 2.171875 -3.875 "/></g></g></g><g fill="#ff7948" fill-opacity="1"><g transform="translate(262.148489, 237.530538)"><g><path d="M 3.015625 -5.21875 C 3.015625 -5.238281 3.019531 -5.257812 3.03125 -5.28125 C 3.050781 -5.300781 3.078125 -5.3125 3.109375 -5.3125 L 3.328125 -5.3125 C 3.347656 -5.3125 3.367188 -5.300781 3.390625 -5.28125 C 3.410156 -5.257812 3.421875 -5.238281 3.421875 -5.21875 L 3.421875 -0.09375 C 3.421875 -0.0625 3.410156 -0.0351562 3.390625 -0.015625 C 3.367188 -0.00390625 3.347656 0 3.328125 0 L 3.109375 0 C 3.078125 0 3.050781 -0.00390625 3.03125 -0.015625 C 3.019531 -0.0351562 3.015625 -0.0625 3.015625 -0.09375 L 3.015625 -0.453125 C 3.015625 -0.460938 3.007812 -0.46875 3 -0.46875 C 3 -0.476562 2.992188 -0.476562 2.984375 -0.46875 C 2.867188 -0.300781 2.722656 -0.171875 2.546875 -0.078125 C 2.367188 0.015625 2.171875 0.0625 1.953125 0.0625 C 1.609375 0.0625 1.316406 -0.0234375 1.078125 -0.203125 C 0.847656 -0.390625 0.6875 -0.640625 0.59375 -0.953125 C 0.539062 -1.160156 0.515625 -1.476562 0.515625 -1.90625 C 0.515625 -2.132812 0.519531 -2.320312 0.53125 -2.46875 C 0.539062 -2.613281 0.5625 -2.742188 0.59375 -2.859375 C 0.675781 -3.171875 0.835938 -3.414062 1.078125 -3.59375 C 1.316406 -3.78125 1.609375 -3.875 1.953125 -3.875 C 2.171875 -3.875 2.367188 -3.828125 2.546875 -3.734375 C 2.722656 -3.648438 2.867188 -3.523438 2.984375 -3.359375 C 2.984375 -3.347656 2.988281 -3.34375 3 -3.34375 C 3.007812 -3.351562 3.015625 -3.363281 3.015625 -3.375 Z M 2.921875 -1.015625 C 2.953125 -1.109375 2.972656 -1.210938 2.984375 -1.328125 C 3.003906 -1.453125 3.015625 -1.644531 3.015625 -1.90625 C 3.015625 -2.164062 3.003906 -2.359375 2.984375 -2.484375 C 2.972656 -2.609375 2.945312 -2.722656 2.90625 -2.828125 C 2.851562 -3.035156 2.742188 -3.203125 2.578125 -3.328125 C 2.421875 -3.460938 2.226562 -3.53125 2 -3.53125 C 1.757812 -3.53125 1.550781 -3.460938 1.375 -3.328125 C 1.207031 -3.203125 1.09375 -3.035156 1.03125 -2.828125 C 0.988281 -2.722656 0.957031 -2.609375 0.9375 -2.484375 C 0.925781 -2.367188 0.921875 -2.175781 0.921875 -1.90625 C 0.921875 -1.65625 0.925781 -1.46875 0.9375 -1.34375 C 0.957031 -1.226562 0.984375 -1.117188 1.015625 -1.015625 C 1.066406 -0.796875 1.179688 -0.617188 1.359375 -0.484375 C 1.535156 -0.359375 1.75 -0.296875 2 -0.296875 C 2.238281 -0.296875 2.4375 -0.359375 2.59375 -0.484375 C 2.75 -0.617188 2.859375 -0.796875 2.921875 -1.015625 Z M 2.921875 -1.015625 "/></g></g></g><g fill="#ff7948" fill-opacity="1"><g transform="translate(270.624521, 237.530538)"><g/></g></g><g fill="#ff7948" fill-opacity="1"><g transform="translate(276.538029, 237.530538)"><g><path d="M 3.484375 -2.859375 C 3.515625 -2.742188 3.535156 -2.613281 3.546875 -2.46875 C 3.554688 -2.320312 3.5625 -2.132812 3.5625 -1.90625 C 3.5625 -1.476562 3.535156 -1.160156 3.484375 -0.953125 C 3.390625 -0.640625 3.222656 -0.390625 2.984375 -0.203125 C 2.753906 -0.0234375 2.46875 0.0625 2.125 0.0625 C 1.894531 0.0625 1.691406 0.015625 1.515625 -0.078125 C 1.347656 -0.171875 1.207031 -0.300781 1.09375 -0.46875 C 1.082031 -0.476562 1.070312 -0.476562 1.0625 -0.46875 C 1.0625 -0.46875 1.0625 -0.460938 1.0625 -0.453125 L 1.0625 -0.09375 C 1.0625 -0.0625 1.050781 -0.0351562 1.03125 -0.015625 C 1.019531 -0.00390625 1 0 0.96875 0 L 0.75 0 C 0.726562 0 0.707031 -0.00390625 0.6875 -0.015625 C 0.664062 -0.0351562 0.65625 -0.0625 0.65625 -0.09375 L 0.65625 -5.21875 C 0.65625 -5.238281 0.664062 -5.257812 0.6875 -5.28125 C 0.707031 -5.300781 0.726562 -5.3125 0.75 -5.3125 L 0.96875 -5.3125 C 1 -5.3125 1.019531 -5.300781 1.03125 -5.28125 C 1.050781 -5.257812 1.0625 -5.238281 1.0625 -5.21875 L 1.0625 -3.375 C 1.0625 -3.363281 1.066406 -3.351562 1.078125 -3.34375 C 1.085938 -3.34375 1.09375 -3.347656 1.09375 -3.359375 C 1.207031 -3.523438 1.347656 -3.648438 1.515625 -3.734375 C 1.691406 -3.828125 1.894531 -3.875 2.125 -3.875 C 2.46875 -3.875 2.757812 -3.78125 3 -3.59375 C 3.238281 -3.414062 3.398438 -3.171875 3.484375 -2.859375 Z M 3.0625 -1.015625 C 3.09375 -1.117188 3.113281 -1.226562 3.125 -1.34375 C 3.144531 -1.46875 3.15625 -1.65625 3.15625 -1.90625 C 3.15625 -2.175781 3.144531 -2.367188 3.125 -2.484375 C 3.113281 -2.609375 3.082031 -2.722656 3.03125 -2.828125 C 2.976562 -3.035156 2.863281 -3.203125 2.6875 -3.328125 C 2.519531 -3.460938 2.316406 -3.53125 2.078125 -3.53125 C 1.847656 -3.53125 1.648438 -3.460938 1.484375 -3.328125 C 1.328125 -3.203125 1.222656 -3.035156 1.171875 -2.828125 C 1.128906 -2.722656 1.097656 -2.609375 1.078125 -2.484375 C 1.066406 -2.359375 1.0625 -2.164062 1.0625 -1.90625 C 1.0625 -1.644531 1.066406 -1.453125 1.078125 -1.328125 C 1.097656 -1.210938 1.125 -1.109375 1.15625 -1.015625 C 1.21875 -0.796875 1.328125 -0.617188 1.484375 -0.484375 C 1.640625 -0.359375 1.835938 -0.296875 2.078125 -0.296875 C 2.328125 -0.296875 2.539062 -0.359375 2.71875 -0.484375 C 2.894531 -0.617188 3.007812 -0.796875 3.0625 -1.015625 Z M 3.0625 -1.015625 "/></g></g></g><g fill="#ff7948" fill-opacity="1"><g transform="translate(285.014061, 237.530538)"><g><path d="M 0.75 0 C 0.726562 0 0.707031 -0.00390625 0.6875 -0.015625 C 0.664062 -0.0351562 0.65625 -0.0625 0.65625 -0.09375 L 0.65625 -5.21875 C 0.65625 -5.238281 0.664062 -5.257812 0.6875 -5.28125 C 0.707031 -5.300781 0.726562 -5.3125 0.75 -5.3125 L 0.96875 -5.3125 C 1 -5.3125 1.019531 -5.300781 1.03125 -5.28125 C 1.050781 -5.257812 1.0625 -5.238281 1.0625 -5.21875 L 1.0625 -0.09375 C 1.0625 -0.0625 1.050781 -0.0351562 1.03125 -0.015625 C 1.019531 -0.00390625 1 0 0.96875 0 Z M 0.75 0 "/></g></g></g><g fill="#ff7948" fill-opacity="1"><g transform="translate(291.132266, 237.530538)"><g><path d="M 2.046875 0.0625 C 1.691406 0.0625 1.390625 -0.03125 1.140625 -0.21875 C 0.890625 -0.40625 0.71875 -0.65625 0.625 -0.96875 C 0.5625 -1.164062 0.53125 -1.484375 0.53125 -1.921875 C 0.53125 -2.328125 0.554688 -2.640625 0.609375 -2.859375 C 0.703125 -3.171875 0.875 -3.414062 1.125 -3.59375 C 1.382812 -3.78125 1.691406 -3.875 2.046875 -3.875 C 2.398438 -3.875 2.703125 -3.78125 2.953125 -3.59375 C 3.210938 -3.40625 3.382812 -3.160156 3.46875 -2.859375 C 3.519531 -2.648438 3.546875 -2.335938 3.546875 -1.921875 C 3.546875 -1.484375 3.519531 -1.164062 3.46875 -0.96875 C 3.382812 -0.65625 3.210938 -0.40625 2.953125 -0.21875 C 2.703125 -0.03125 2.398438 0.0625 2.046875 0.0625 Z M 2.046875 -0.296875 C 2.316406 -0.296875 2.546875 -0.367188 2.734375 -0.515625 C 2.921875 -0.660156 3.039062 -0.859375 3.09375 -1.109375 C 3.125 -1.242188 3.140625 -1.507812 3.140625 -1.90625 C 3.140625 -2.3125 3.125 -2.582031 3.09375 -2.71875 C 3.039062 -2.957031 2.921875 -3.148438 2.734375 -3.296875 C 2.546875 -3.453125 2.3125 -3.53125 2.03125 -3.53125 C 1.757812 -3.53125 1.53125 -3.453125 1.34375 -3.296875 C 1.15625 -3.148438 1.035156 -2.957031 0.984375 -2.71875 C 0.953125 -2.582031 0.9375 -2.3125 0.9375 -1.90625 C 0.9375 -1.5 0.953125 -1.234375 0.984375 -1.109375 C 1.035156 -0.859375 1.15625 -0.660156 1.34375 -0.515625 C 1.53125 -0.367188 1.765625 -0.296875 2.046875 -0.296875 Z M 2.046875 -0.296875 "/></g></g></g><g fill="#ff7948" fill-opacity="1"><g transform="translate(299.61589, 237.530538)"><g><path d="M 3.03125 -3.734375 C 3.03125 -3.753906 3.035156 -3.769531 3.046875 -3.78125 C 3.066406 -3.800781 3.085938 -3.8125 3.109375 -3.8125 L 3.328125 -3.8125 C 3.359375 -3.8125 3.378906 -3.800781 3.390625 -3.78125 C 3.410156 -3.769531 3.421875 -3.753906 3.421875 -3.734375 L 3.421875 -0.078125 C 3.421875 0.484375 3.25 0.894531 2.90625 1.15625 C 2.570312 1.414062 2.09375 1.535156 1.46875 1.515625 C 1.40625 1.503906 1.375 1.46875 1.375 1.40625 L 1.390625 1.21875 C 1.390625 1.15625 1.421875 1.128906 1.484375 1.140625 C 2.015625 1.148438 2.40625 1.054688 2.65625 0.859375 C 2.90625 0.660156 3.03125 0.34375 3.03125 -0.09375 L 3.03125 -0.46875 C 3.03125 -0.488281 3.023438 -0.5 3.015625 -0.5 C 3.003906 -0.5 2.992188 -0.492188 2.984375 -0.484375 C 2.753906 -0.140625 2.410156 0.03125 1.953125 0.03125 C 1.617188 0.03125 1.328125 -0.0546875 1.078125 -0.234375 C 0.835938 -0.410156 0.675781 -0.65625 0.59375 -0.96875 C 0.53125 -1.175781 0.5 -1.488281 0.5 -1.90625 C 0.5 -2.34375 0.53125 -2.664062 0.59375 -2.875 C 0.675781 -3.175781 0.835938 -3.414062 1.078125 -3.59375 C 1.316406 -3.78125 1.601562 -3.875 1.9375 -3.875 C 2.394531 -3.875 2.742188 -3.703125 2.984375 -3.359375 C 2.992188 -3.347656 3.003906 -3.34375 3.015625 -3.34375 C 3.023438 -3.351562 3.03125 -3.363281 3.03125 -3.375 Z M 2.984375 -1.109375 C 3.003906 -1.191406 3.015625 -1.285156 3.015625 -1.390625 C 3.023438 -1.503906 3.03125 -1.675781 3.03125 -1.90625 C 3.03125 -2.144531 3.023438 -2.316406 3.015625 -2.421875 C 3.015625 -2.535156 3.003906 -2.632812 2.984375 -2.71875 C 2.941406 -2.945312 2.832031 -3.140625 2.65625 -3.296875 C 2.488281 -3.453125 2.273438 -3.53125 2.015625 -3.53125 C 1.742188 -3.53125 1.519531 -3.453125 1.34375 -3.296875 C 1.164062 -3.140625 1.046875 -2.945312 0.984375 -2.71875 C 0.929688 -2.570312 0.90625 -2.304688 0.90625 -1.921875 C 0.90625 -1.546875 0.929688 -1.273438 0.984375 -1.109375 C 1.035156 -0.878906 1.148438 -0.6875 1.328125 -0.53125 C 1.515625 -0.382812 1.742188 -0.3125 2.015625 -0.3125 C 2.285156 -0.3125 2.503906 -0.382812 2.671875 -0.53125 C 2.835938 -0.6875 2.941406 -0.878906 2.984375 -1.109375 Z M 2.984375 -1.109375 "/></g></g></g><path fill="#ff7948" d="M 216.617188 176.347656 C 216.617188 214.785156 181.234375 245.847656 137.449219 245.847656 C 93.664062 245.847656 53.34375 214.785156 53.34375 176.347656 C 53.34375 137.914062 82.636719 84.417969 126.421875 84.417969 C 219.03125 84.523438 216.617188 137.914062 216.617188 176.347656 Z M 216.617188 176.347656 " fill-opacity="1" fill-rule="nonzero"/><path fill="#f9b916" d="M 89.253906 127.171875 C 86.523438 136.964844 75.183594 142.335938 63.949219 139.070312 C 52.816406 135.910156 44.839844 124.960938 47.566406 115.167969 C 50.296875 105.375 61.742188 93.894531 72.875 97.054688 C 96.496094 103.792969 92.089844 117.378906 89.253906 127.171875 Z M 89.253906 127.171875 " fill-opacity="1" fill-rule="nonzero"/><path fill="#f9b916" d="M 310.382812 194.882812 L 312.273438 192.355469 L 307.128906 188.457031 L 308.28125 187.511719 L 315.316406 189.617188 C 315.316406 189.617188 317.101562 187.511719 318.992188 185.71875 C 320.882812 184.035156 323.191406 182.351562 323.191406 182.351562 L 328.128906 178.558594 L 324.242188 175.613281 L 321.511719 177.613281 C 321.511719 177.613281 320.566406 178.035156 319.726562 176.664062 C 318.78125 175.402344 319.621094 174.664062 319.621094 174.664062 L 321.195312 173.503906 L 310.488281 167.1875 L 315.105469 164.976562 L 337.261719 172.347656 C 337.261719 172.347656 344.296875 166.871094 345.136719 166.238281 C 345.976562 165.609375 347.445312 164.765625 348.917969 164.027344 C 350.492188 163.1875 351.332031 162.976562 352.90625 163.1875 C 354.378906 163.394531 354.585938 163.710938 354.796875 164.027344 C 355.007812 164.34375 355.21875 164.554688 355.007812 166.132812 C 354.796875 167.714844 354.167969 168.449219 353.011719 169.714844 C 351.753906 170.976562 350.492188 172.03125 349.652344 172.664062 C 348.8125 173.292969 341.355469 178.140625 341.355469 178.140625 L 341.148438 201.515625 L 337.472656 204.992188 L 334.636719 192.566406 L 333.0625 193.722656 C 333.0625 193.722656 332.222656 194.355469 331.277344 193.089844 C 330.332031 191.828125 331.066406 191.195312 331.066406 191.195312 L 333.796875 189.195312 L 332.222656 184.5625 L 327.078125 188.140625 C 327.078125 188.140625 324.871094 189.933594 322.5625 191.089844 C 320.355469 192.25 317.730469 193.300781 317.730469 193.300781 L 317.417969 200.671875 L 316.050781 201.515625 L 314.058594 195.410156 L 311.117188 196.355469 C 311.117188 196.355469 310.488281 196.566406 310.171875 196.039062 C 309.960938 195.410156 310.382812 194.882812 310.382812 194.882812 Z M 310.382812 194.882812 " fill-opacity="1" fill-rule="nonzero"/><g mask="url(#5ae33b0179)"><g transform="matrix(1, 0, 0, 1, 148, 112)"><g clip-path="url(#cab8c3d2a1)"><g clip-path="url(#de38e8df0a)"><path fill="#f9b916" d="M 87.832031 48.972656 C 87.832031 69.296875 69.140625 85.832031 45.832031 85.832031 C 22.523438 85.832031 1.417969 69.402344 1.417969 48.972656 C 1.417969 28.546875 16.746094 0.535156 40.058594 0.535156 C 88.988281 0.535156 87.832031 28.546875 87.832031 48.972656 Z M 87.832031 48.972656 " fill-opacity="1" fill-rule="nonzero"/></g></g></g></g><g mask="url(#9052a34fee)"><g transform="matrix(1, 0, 0, 1, 18, 151)"><g clip-path="url(#71da7bc852)"><g clip-path="url(#0fa1e6fc7b)"><path fill="#f9b916" d="M 43.113281 82.527344 L 41.328125 82.527344 C 40.488281 82.527344 39.753906 81.792969 39.859375 80.84375 C 39.859375 80 40.699219 79.265625 41.539062 79.371094 C 44.269531 79.472656 47 79.371094 49.625 78.949219 C 50.464844 78.84375 51.304688 79.371094 51.40625 80.316406 C 51.511719 81.160156 50.988281 82 50.042969 82.105469 C 47.734375 82.421875 45.421875 82.527344 43.113281 82.527344 Z M 33.136719 81.476562 L 32.824219 81.476562 C 29.988281 80.84375 27.257812 80 24.632812 78.84375 C 23.792969 78.527344 23.476562 77.578125 23.792969 76.738281 C 24.109375 75.894531 25.054688 75.578125 25.894531 75.894531 C 28.414062 76.945312 30.933594 77.789062 33.558594 78.316406 C 34.398438 78.527344 34.921875 79.371094 34.714844 80.210938 C 34.503906 80.949219 33.875 81.476562 33.136719 81.476562 Z M 57.8125 80 C 57.183594 80 56.554688 79.578125 56.34375 78.949219 C 56.027344 78.105469 56.449219 77.261719 57.289062 76.945312 C 59.808594 76 62.222656 74.839844 64.53125 73.472656 C 65.269531 73.050781 66.214844 73.261719 66.738281 74 C 67.261719 74.734375 66.949219 75.683594 66.214844 76.210938 C 63.796875 77.683594 61.171875 78.949219 58.441406 80 Z M 17.808594 74.945312 C 17.492188 74.945312 17.179688 74.839844 16.96875 74.628906 C 14.554688 72.945312 12.242188 71.15625 10.25 69.050781 C 9.617188 68.417969 9.617188 67.46875 10.25 66.839844 C 10.878906 66.207031 11.824219 66.207031 12.453125 66.839844 C 14.238281 68.734375 16.339844 70.417969 18.648438 71.996094 C 19.382812 72.523438 19.59375 73.472656 19.066406 74.210938 C 18.859375 74.734375 18.332031 74.945312 17.808594 74.945312 Z M 71.882812 71.261719 C 71.464844 71.261719 71.042969 71.15625 70.726562 70.839844 C 70.097656 70.207031 70.097656 69.261719 70.726562 68.628906 C 72.617188 66.734375 74.296875 64.625 75.664062 62.414062 C 76.082031 61.679688 77.132812 61.46875 77.867188 61.890625 C 78.601562 62.308594 78.8125 63.363281 78.394531 64.101562 C 76.921875 66.523438 75.03125 68.839844 72.933594 70.945312 C 72.722656 71.050781 72.304688 71.261719 71.882812 71.261719 Z M 6.363281 62.941406 C 5.839844 62.941406 5.3125 62.625 5 62.203125 C 3.527344 59.570312 2.375 56.835938 1.636719 54.097656 C 1.429688 53.253906 1.953125 52.410156 2.792969 52.199219 C 3.632812 51.992188 4.472656 52.515625 4.683594 53.359375 C 5.3125 55.886719 6.257812 58.308594 7.625 60.625 C 8.042969 61.363281 7.832031 62.308594 7.097656 62.835938 C 6.886719 62.941406 6.574219 62.941406 6.363281 62.941406 Z M 80.492188 57.042969 C 80.386719 57.042969 80.179688 57.042969 80.074219 56.941406 C 79.234375 56.730469 78.707031 55.78125 79.023438 54.9375 C 79.757812 52.410156 80.074219 49.777344 80.074219 47.144531 L 80.074219 46.9375 C 80.074219 46.09375 80.808594 45.355469 81.648438 45.355469 C 82.488281 45.355469 83.222656 46.09375 83.222656 46.9375 L 83.222656 47.144531 C 83.222656 50.09375 82.804688 53.042969 81.964844 55.886719 C 81.753906 56.625 81.121094 57.042969 80.492188 57.042969 Z M 2.476562 46.9375 C 2.375 46.9375 2.375 46.9375 2.476562 46.9375 C 1.535156 46.9375 0.902344 46.199219 0.902344 45.25 C 1.007812 42.511719 1.429688 39.566406 2.164062 36.722656 C 2.375 35.878906 3.214844 35.351562 4.054688 35.5625 C 4.894531 35.773438 5.417969 36.617188 5.207031 37.457031 C 4.578125 40.195312 4.160156 42.933594 4.054688 45.460938 C 3.949219 46.304688 3.316406 46.9375 2.476562 46.9375 Z M 81.542969 40.195312 C 80.703125 40.195312 79.96875 39.566406 79.96875 38.722656 C 79.863281 35.667969 79.652344 32.929688 79.234375 30.613281 C 79.128906 29.769531 79.652344 28.929688 80.492188 28.824219 C 81.332031 28.71875 82.171875 29.246094 82.277344 30.085938 C 82.699219 32.613281 82.90625 35.351562 83.011719 38.617188 C 83.117188 39.460938 82.488281 40.195312 81.542969 40.195312 Z M 6.152344 30.613281 C 5.941406 30.613281 5.734375 30.613281 5.523438 30.507812 C 4.683594 30.191406 4.367188 29.246094 4.683594 28.507812 C 5.734375 25.769531 6.992188 23.242188 8.464844 20.714844 C 8.882812 19.976562 9.828125 19.664062 10.667969 20.1875 C 11.402344 20.609375 11.71875 21.558594 11.191406 22.398438 C 9.828125 24.714844 8.671875 27.140625 7.625 29.664062 C 7.308594 30.296875 6.785156 30.613281 6.152344 30.613281 Z M 78.601562 23.769531 C 77.972656 23.769531 77.34375 23.347656 77.132812 22.820312 C 76.082031 20.292969 74.824219 18.082031 73.144531 16.082031 C 72.617188 15.449219 72.722656 14.398438 73.351562 13.871094 C 73.984375 13.34375 75.03125 13.449219 75.558594 14.082031 C 77.34375 16.292969 78.917969 18.820312 79.96875 21.664062 C 80.28125 22.503906 79.863281 23.347656 79.128906 23.664062 C 79.023438 23.769531 78.8125 23.769531 78.601562 23.769531 Z M 14.65625 16.292969 C 14.34375 16.292969 13.921875 16.1875 13.609375 15.871094 C 12.976562 15.34375 12.875 14.292969 13.398438 13.660156 C 15.394531 11.34375 17.492188 9.34375 19.699219 7.65625 C 20.433594 7.132812 21.378906 7.238281 21.902344 7.972656 C 22.429688 8.710938 22.324219 9.660156 21.589844 10.183594 C 19.59375 11.765625 17.597656 13.660156 15.8125 15.765625 C 15.5 16.082031 15.078125 16.292969 14.65625 16.292969 Z M 68.207031 11.132812 C 67.894531 11.132812 67.578125 11.027344 67.367188 10.921875 C 65.269531 9.554688 62.851562 8.394531 60.226562 7.550781 C 59.386719 7.238281 58.96875 6.394531 59.28125 5.550781 C 59.597656 4.710938 60.4375 4.289062 61.277344 4.605469 C 64.21875 5.65625 66.84375 6.816406 69.152344 8.289062 C 69.886719 8.710938 70.097656 9.761719 69.679688 10.5 C 69.257812 10.816406 68.734375 11.132812 68.207031 11.132812 Z M 27.886719 6.289062 C 27.257812 6.289062 26.628906 5.867188 26.417969 5.339844 C 26.101562 4.5 26.523438 3.65625 27.257812 3.234375 C 29.988281 2.078125 32.929688 1.445312 35.867188 1.234375 C 36.707031 1.128906 37.441406 1.867188 37.546875 2.707031 C 37.652344 3.550781 36.917969 4.289062 36.078125 4.394531 C 33.453125 4.605469 30.933594 5.128906 28.414062 6.183594 C 28.203125 6.289062 27.992188 6.289062 27.886719 6.289062 Z M 52.5625 5.550781 L 52.25 5.550781 C 49.726562 5.128906 47 4.8125 44.164062 4.605469 C 43.324219 4.5 42.589844 3.761719 42.691406 2.917969 C 42.796875 2.078125 43.53125 1.339844 44.375 1.445312 C 47.3125 1.65625 50.253906 1.972656 52.878906 2.390625 C 53.71875 2.496094 54.347656 3.339844 54.136719 4.183594 C 54.03125 4.917969 53.296875 5.550781 52.5625 5.550781 Z M 52.5625 5.550781 " fill-opacity="1" fill-rule="nonzero"/></g></g></g></g><g mask="url(#e9f921f6e4)"><g transform="matrix(1, 0, 0, 1, 127, 187)"><g clip-path="url(#3fa164dc69)"><g clip-path="url(#721c7cef78)"><path fill="#f9b916" d="M 9.710938 9.988281 C 9.710938 9.988281 6.457031 3.460938 4.148438 5.566406 C 1.628906 7.566406 6.878906 9.988281 6.878906 9.988281 C 6.878906 9.988281 -0.789062 11.566406 1.3125 13.148438 C 3.308594 14.726562 7.824219 13.148438 7.824219 13.148438 C 7.824219 13.148438 6.984375 18.726562 7.824219 19.992188 C 8.664062 21.253906 9.816406 14.410156 9.816406 14.410156 C 9.816406 14.410156 14.648438 22.835938 15.804688 20.203125 C 17.0625 17.675781 11.8125 12.9375 11.8125 12.9375 C 11.8125 12.9375 22.3125 11.042969 19.898438 10.199219 C 17.378906 9.355469 13.074219 10.199219 13.074219 10.199219 C 13.074219 10.199219 17.484375 1.039062 14.332031 1.878906 C 11.183594 2.722656 9.710938 9.988281 9.710938 9.988281 Z M 9.710938 9.988281 " fill-opacity="1" fill-rule="nonzero"/></g></g></g></g><g mask="url(#7f354f6ad5)"><g transform="matrix(1, 0, 0, 1, 208, 169)"><g clip-path="url(#83f908a64a)"><g clip-path="url(#57ecb0e4b1)"><path fill="#f9b916" d="M 79.808594 37.464844 C 78.96875 37.464844 78.128906 37.464844 77.289062 37.359375 C 76.238281 37.253906 75.1875 37.148438 74.136719 36.9375 C 73.296875 36.832031 72.667969 35.992188 72.878906 35.148438 C 72.980469 34.304688 73.824219 33.675781 74.664062 33.886719 C 75.605469 34.09375 76.550781 34.199219 77.496094 34.199219 C 79.175781 34.304688 80.960938 34.304688 82.640625 34.199219 C 83.480469 34.09375 84.324219 34.726562 84.324219 35.675781 C 84.425781 36.519531 83.796875 37.359375 82.851562 37.359375 C 81.90625 37.359375 80.855469 37.464844 79.808594 37.464844 Z M 91.042969 35.675781 C 90.414062 35.675781 89.78125 35.253906 89.574219 34.515625 C 89.363281 33.675781 89.78125 32.832031 90.621094 32.515625 C 93.140625 31.671875 95.664062 30.621094 97.972656 29.355469 C 98.707031 28.9375 99.652344 29.25 100.070312 29.988281 C 100.492188 30.726562 100.175781 31.671875 99.441406 32.09375 C 96.921875 33.570312 94.191406 34.726562 91.460938 35.570312 C 91.355469 35.675781 91.253906 35.675781 91.042969 35.675781 Z M 66.578125 34.199219 C 66.367188 34.199219 66.050781 34.09375 65.84375 33.992188 C 63.53125 32.726562 61.117188 31.042969 58.703125 28.832031 C 58.074219 28.199219 57.96875 27.25 58.597656 26.617188 C 59.226562 25.988281 60.171875 25.882812 60.800781 26.515625 C 63.007812 28.515625 65.105469 30.09375 67.3125 31.253906 C 68.046875 31.671875 68.363281 32.621094 67.941406 33.359375 C 67.730469 33.886719 67.101562 34.199219 66.578125 34.199219 Z M 53.871094 23.355469 C 53.453125 23.355469 53.03125 23.144531 52.71875 22.828125 L 51.5625 21.566406 C 50.09375 19.984375 48.621094 18.300781 47.046875 16.71875 C 46.417969 16.089844 46.417969 15.140625 47.046875 14.507812 C 47.675781 13.878906 48.621094 13.878906 49.253906 14.507812 C 50.828125 16.089844 52.402344 17.773438 53.871094 19.351562 L 55.027344 20.617188 C 55.65625 21.25 55.550781 22.300781 54.921875 22.828125 C 54.605469 23.25 54.292969 23.355469 53.871094 23.355469 Z M 41.796875 11.664062 C 41.484375 11.664062 41.167969 11.5625 40.851562 11.351562 C 38.753906 9.769531 36.335938 8.402344 33.816406 7.347656 C 32.976562 7.03125 32.664062 6.085938 32.976562 5.242188 C 33.292969 4.398438 34.238281 4.085938 35.078125 4.398438 C 37.808594 5.558594 40.328125 7.03125 42.636719 8.71875 C 43.371094 9.242188 43.476562 10.191406 42.953125 10.929688 C 42.742188 11.457031 42.324219 11.664062 41.796875 11.664062 Z M 2.84375 11.035156 C 2.421875 11.035156 2.003906 10.824219 1.6875 10.507812 C 1.164062 9.875 1.164062 8.824219 1.792969 8.296875 C 3.996094 6.296875 6.515625 4.714844 9.351562 3.558594 C 10.191406 3.242188 11.03125 3.664062 11.453125 4.398438 C 11.765625 5.242188 11.347656 6.085938 10.613281 6.507812 C 8.199219 7.558594 5.886719 8.929688 3.996094 10.613281 C 3.578125 10.929688 3.261719 11.035156 2.84375 11.035156 Z M 26.46875 5.136719 L 26.152344 5.136719 C 23.421875 4.609375 20.796875 4.503906 18.171875 4.714844 C 17.332031 4.820312 16.597656 4.1875 16.492188 3.242188 C 16.386719 2.398438 17.015625 1.664062 17.960938 1.558594 C 20.796875 1.347656 23.738281 1.453125 26.78125 1.976562 C 27.621094 2.082031 28.253906 2.925781 28.042969 3.769531 C 27.832031 4.609375 27.203125 5.136719 26.46875 5.136719 Z M 26.46875 5.136719 " fill-opacity="1" fill-rule="nonzero"/></g></g></g></g><path fill="#30afff" d="M 83.058594 156.761719 C 83.058594 156.761719 77.914062 146.546875 74.238281 149.8125 C 70.351562 152.972656 78.542969 156.761719 78.542969 156.761719 C 78.542969 156.761719 66.574219 159.289062 69.722656 161.710938 C 72.875 164.238281 79.90625 161.710938 79.90625 161.710938 C 79.90625 161.710938 78.648438 170.558594 79.90625 172.453125 C 81.167969 174.347656 83.058594 163.605469 83.058594 163.605469 C 83.058594 163.605469 90.617188 176.769531 92.507812 172.769531 C 94.398438 168.765625 86.207031 161.289062 86.207031 161.289062 C 86.207031 161.289062 102.691406 158.339844 98.914062 156.972656 C 95.027344 155.605469 88.203125 156.972656 88.203125 156.972656 C 88.203125 156.972656 95.238281 142.652344 90.199219 144.019531 C 85.15625 145.390625 83.058594 156.761719 83.058594 156.761719 Z M 83.058594 156.761719 " fill-opacity="1" fill-rule="nonzero"/><path fill="#30afff" d="M 70.039062 118.011719 C 70.039062 118.011719 65.941406 109.796875 63.003906 112.429688 C 59.851562 114.957031 66.46875 118.011719 66.46875 118.011719 C 66.46875 118.011719 56.808594 120.011719 59.433594 122.011719 C 61.953125 124.011719 67.625 122.011719 67.625 122.011719 C 67.625 122.011719 66.574219 129.066406 67.625 130.648438 C 68.671875 132.226562 70.144531 123.589844 70.144531 123.589844 C 70.144531 123.589844 76.234375 134.121094 77.703125 130.960938 C 79.277344 127.699219 72.664062 121.800781 72.664062 121.800781 C 72.664062 121.800781 85.894531 119.378906 82.847656 118.328125 C 79.699219 117.273438 74.238281 118.328125 74.238281 118.328125 C 74.238281 118.328125 79.804688 106.742188 75.8125 107.902344 C 71.824219 109.058594 70.039062 118.011719 70.039062 118.011719 Z M 70.039062 118.011719 " fill-opacity="1" fill-rule="nonzero"/><path fill="#30afff" d="M 202.546875 154.445312 C 202.546875 154.445312 200.132812 149.707031 198.453125 151.179688 C 196.667969 152.65625 200.449219 154.445312 200.449219 154.445312 C 200.449219 154.445312 194.882812 155.605469 196.351562 156.761719 C 197.824219 157.921875 201.078125 156.761719 201.078125 156.761719 C 201.078125 156.761719 200.449219 160.867188 201.078125 161.710938 C 201.707031 162.554688 202.546875 157.605469 202.546875 157.605469 C 202.546875 157.605469 206.011719 163.710938 206.957031 161.816406 C 207.902344 159.921875 204.019531 156.550781 204.019531 156.550781 C 204.019531 156.550781 211.683594 155.183594 209.898438 154.550781 C 208.113281 153.917969 204.960938 154.550781 204.960938 154.550781 C 204.960938 154.550781 208.21875 147.917969 205.90625 148.546875 C 203.492188 149.179688 202.546875 154.445312 202.546875 154.445312 Z M 202.546875 154.445312 " fill-opacity="1" fill-rule="nonzero"/></svg>